<svg width="99" height="48" viewBox="0 0 99 48" fill="none" xmlns="http://www.w3.org/2000/svg">
<path d="M0 47.9091C4.07624 47.9091 7.38068 44.6046 7.38068 40.5284V36.5909V30.6761V19.0341V16.6903C7.38068 14.6522 5.72846 13 3.69034 13C1.65222 13 0 14.6522 0 16.6903V47.9091Z" fill="white"/>
<path d="M66 43.9091C70.0762 43.9091 73.3807 40.6046 73.3807 36.5284V12.6903C73.3807 10.6522 71.7285 9 69.6903 9C67.6522 9 66 10.6522 66 12.6903V43.9091Z" fill="white"/>
<path d="M79 43.9091C83.0762 43.9091 86.3807 40.6046 86.3807 36.5284V12.6903C86.3807 10.6522 84.7285 9 82.6903 9C80.6522 9 79 10.6522 79 12.6903V43.9091Z" fill="white"/>
<path d="M13 31.2187C13 33.2569 14.6522 34.9091 16.6903 34.9091C18.7285 34.9091 20.3807 33.2569 20.3807 31.2188V23.5909V17.6761V6.03409V3.69034C20.3807 1.65222 18.7285 0 16.6903 0C14.6522 0 13 1.65222 13 3.69034V31.2187Z" fill="white"/>
<path d="M25 35C28.866 35 32 31.866 32 28V12.5C32 10.567 30.433 9 28.5 9C26.567 9 25 10.567 25 12.5V35Z" fill="white"/>
<path d="M39 31.2187C39 33.2569 40.6522 34.9091 42.6903 34.9091C44.7285 34.9091 46.3807 33.2569 46.3807 31.2188V23.5909V17.6761V6.03409V3.69034C46.3807 1.65222 44.7285 0 42.6903 0C40.6522 0 39 1.65222 39 3.69034V31.2187Z" fill="white"/>
<path d="M52 35C55.866 35 59 31.866 59 28V12.5C59 10.567 57.433 9 55.5 9C53.567 9 52 10.567 52 12.5V35Z" fill="white"/>
<path d="M92 24.5C92 26.433 93.567 28 95.5 28C97.433 28 99 26.433 99 24.5V13.5C99 11.567 97.433 10 95.5 10C93.567 10 92 11.567 92 13.5V24.5Z" fill="white"/>
</svg>
