<svg width="24" height="20" viewBox="0 0 24 20" fill="none" xmlns="http://www.w3.org/2000/svg">
<path d="M23.4559 2.44295C23.0789 2.61018 22.6913 2.75131 22.2952 2.86589C22.7641 2.33557 23.1216 1.71157 23.3399 1.02873C23.3888 0.875675 23.3381 0.708139 23.2123 0.608036C23.0867 0.507856 22.9121 0.495856 22.7737 0.577843C21.9326 1.07673 21.0251 1.43526 20.0735 1.64491C19.115 0.708294 17.8131 0.175262 16.4672 0.175262C13.6263 0.175262 11.3151 2.48646 11.3151 5.32728C11.3151 5.55103 11.3292 5.77353 11.3572 5.99294C7.83196 5.68341 4.55457 3.95069 2.30399 1.19C2.22378 1.0916 2.10022 1.03857 1.97372 1.04871C1.84714 1.05862 1.73341 1.13 1.66946 1.2397C1.21299 2.02295 0.971678 2.91877 0.971678 3.83023C0.971678 5.07165 1.4149 6.2495 2.19784 7.16986C1.95978 7.08741 1.72876 6.98437 1.50827 6.86197C1.3899 6.79608 1.24543 6.79709 1.12783 6.86452C1.01016 6.93195 0.936375 7.05598 0.933278 7.19154C0.932736 7.21438 0.932736 7.23722 0.932736 7.26037C0.932736 9.1134 1.93005 10.7817 3.45482 11.691C3.32383 11.6779 3.19292 11.6589 3.06285 11.6341C2.92876 11.6085 2.79088 11.6555 2.70045 11.7577C2.60987 11.8599 2.57991 12.0024 2.62164 12.1324C3.18602 13.8945 4.63911 15.1906 6.39575 15.5857C4.9388 16.4983 3.27266 16.9763 1.5236 16.9763C1.15865 16.9763 0.791601 16.9548 0.432375 16.9123C0.253923 16.8911 0.0832913 16.9965 0.0225172 17.1662C-0.038257 17.3359 0.0261559 17.5252 0.177975 17.6226C2.42492 19.0632 5.02303 19.8247 7.69129 19.8247C12.9368 19.8247 16.2182 17.3512 18.0472 15.2761C20.328 12.6887 21.6361 9.2639 21.6361 5.87998C21.6361 5.73861 21.6339 5.59585 21.6295 5.45356C22.5294 4.77559 23.3041 3.9551 23.9346 3.01206C24.0303 2.86883 24.0199 2.67954 23.909 2.5477C23.7982 2.41578 23.6136 2.37312 23.4559 2.44295Z" fill="white"/>
</svg>
