<svg width="24" height="18" viewBox="0 0 24 18" fill="none" xmlns="http://www.w3.org/2000/svg">
<path d="M23.0645 2.00478C22.1982 0.974948 20.5987 0.554871 17.5441 0.554871H6.45569C3.33112 0.554871 1.70454 1.00205 0.841471 2.09846C0 3.16746 0 4.74256 0 6.92254V11.0776C0 15.3009 0.9984 17.4451 6.45569 17.4451H17.5442C20.1931 17.4451 21.661 17.0745 22.6106 16.1656C23.5845 15.2337 24 13.712 24 11.0776V6.92254C24 4.62357 23.9349 3.03918 23.0645 2.00478ZM15.4081 9.57368L10.3729 12.2052C10.2603 12.2641 10.1372 12.2933 10.0143 12.2933C9.87507 12.2933 9.73618 12.2558 9.61316 12.1813C9.38152 12.041 9.24008 11.7899 9.24008 11.5191V6.27283C9.24008 6.00248 9.38113 5.75165 9.61231 5.61121C9.84356 5.47077 10.1312 5.46117 10.3711 5.58581L15.4063 8.20042C15.6625 8.33343 15.8234 8.59789 15.8237 8.88643C15.8241 9.17521 15.6639 9.44006 15.4081 9.57368Z" fill="white"/>
</svg>
